<svg id="Layer_1" data-name="Layer 1" xmlns="http://www.w3.org/2000/svg" viewBox="0 0 578.9 196.92"><defs><style>.cls-1{fill:#42b76e;}.cls-2,.cls-4{fill:#727373;}.cls-3{fill:#7f7f7f;}.cls-4{font-size:41.95px;font-family:Poppins-Regular, Poppins;letter-spacing:0.08em;}</style></defs><title>Artboard 31 copy 2</title><path class="cls-1" d="M199.38,103.05v16.67a4.49,4.49,0,0,1-4.49,4.49H102.74a4.41,4.41,0,0,1-4.41-4.41V105.93a4.12,4.12,0,0,1,1-2.66l56.7-67H104a4.2,4.2,0,0,1-4.2-4.2V15.57A4.6,4.6,0,0,1,104.42,11h88.75a4.31,4.31,0,0,1,4.31,4.31v14a4.13,4.13,0,0,1-1,2.67L139.8,99h55.47A4.11,4.11,0,0,1,199.38,103.05Z"/><path class="cls-2" d="M262.12,78q5.67,5.56,5.66,16.2v30h-6.87V94.89q0-7.94-4-12.09t-11.32-4.16q-8.22,0-13,4.88T227.84,97V124.2H221V39.3h6.87V81.74a18.49,18.49,0,0,1,7.73-6.87,25.43,25.43,0,0,1,11.32-2.42Q256.46,72.45,262.12,78Z"/><path class="cls-2" d="M426.77,75.69a23.32,23.32,0,0,1,9.1,9.14,27.2,27.2,0,0,1,3.28,13.45,27.14,27.14,0,0,1-3.28,13.44,23.51,23.51,0,0,1-9.1,9.19,25.75,25.75,0,0,1-13,3.29,23.94,23.94,0,0,1-11.46-2.71,20.88,20.88,0,0,1-8.17-7.83V124.2H387.6V39.3h6.87V82.51A21.24,21.24,0,0,1,402.64,75a24,24,0,0,1,11.17-2.56A26.23,26.23,0,0,1,426.77,75.69Zm-3.77,40a17.38,17.38,0,0,0,6.82-7,22.92,22.92,0,0,0,0-20.7,17.38,17.38,0,0,0-6.82-7,20.26,20.26,0,0,0-19.39,0,17.45,17.45,0,0,0-6.77,7,22.92,22.92,0,0,0,0,20.7,17.45,17.45,0,0,0,6.77,7,20.26,20.26,0,0,0,19.39,0Z"/><path class="cls-2" d="M366,110.29V72.45h-6.87v29.9h0v7.94h0c-.17,3.82-14.17,6.9-31.43,6.9s-31.26-3.08-31.43-6.9h0v-7.94h0V72.45h-6.87v37.84h0c0,7.69,17.16,13.92,38.32,13.92S366,118,366,110.29Z"/><path class="cls-3" d="M444,34.31c17.3,13.25,29,36.48,36.59,53.72A88.92,88.92,0,0,0,359.14,16.88C385.43,12.74,417.52,14.05,444,34.31Z"/><text class="cls-4" transform="translate(57.43 178.46)">connect your world</text></svg>