<svg id="Layer_1" data-name="Layer 1" xmlns="http://www.w3.org/2000/svg" viewBox="0 0 578.9 196.92"><defs><style>.cls-1{fill:#42b76e;}.cls-2{fill:#727373;}.cls-3{fill:#aaa;}</style></defs><title>Artboard 31 copy</title><path class="cls-1" d="M200.29,112.26v15.32a4.12,4.12,0,0,1-4.12,4.12H111.49a4,4,0,0,1-4-4V114.91a3.78,3.78,0,0,1,.9-2.45l52.1-61.61H112.66A3.86,3.86,0,0,1,108.8,47V31.87A4.23,4.23,0,0,1,113,27.64h81.55a4,4,0,0,1,4,4V44.43a3.78,3.78,0,0,1-.9,2.45l-52.1,61.61h51A3.77,3.77,0,0,1,200.29,112.26Z"/><path class="cls-2" d="M258,89.25q5.21,5.11,5.2,14.89V131.7h-6.31V104.76q0-7.29-3.65-11.11T242.8,89.83q-7.56,0-12,4.49t-4.4,12.4v25h-6.31v-78h6.31v39a17.23,17.23,0,0,1,7.11-6.31A23.38,23.38,0,0,1,244,84.14Q252.76,84.14,258,89.25Z"/><path class="cls-2" d="M409.25,87.12a21.35,21.35,0,0,1,8.35,8.4,26.78,26.78,0,0,1,0,24.71,21.51,21.51,0,0,1-8.35,8.44,23.71,23.71,0,0,1-11.91,3,22,22,0,0,1-10.53-2.49,19.22,19.22,0,0,1-7.51-7.2v9.69h-6.05v-78h6.31V93.39a19.51,19.51,0,0,1,7.51-6.89,22.15,22.15,0,0,1,10.27-2.35A24.08,24.08,0,0,1,409.25,87.12Zm-3.47,36.71a16,16,0,0,0,6.27-6.44,21.06,21.06,0,0,0,0-19,16,16,0,0,0-6.27-6.45,18.69,18.69,0,0,0-17.82,0,16.11,16.11,0,0,0-6.22,6.45,21.06,21.06,0,0,0,0,19,16.15,16.15,0,0,0,6.22,6.44,18.62,18.62,0,0,0,17.82,0Z"/><path class="cls-2" d="M353.41,118.91V84.14H347.1v27.48h0v7.29h0c-.15,3.51-13,6.35-28.88,6.35s-28.72-2.84-28.88-6.35h0v-7.29h0V84.14H283v34.77h0c0,7.07,15.77,12.79,35.21,12.79s35.21-5.72,35.21-12.79Z"/><path class="cls-3" d="M425.06,49.09c15.9,12.18,26.67,33.53,33.62,49.37A81.7,81.7,0,0,0,347.1,33.08C371.26,29.28,400.74,30.48,425.06,49.09Z"/><path class="cls-2" d="M162.52,165.71a5.55,5.55,0,0,1-2.29-.47,5.81,5.81,0,0,1-1.83-1.3,6.09,6.09,0,0,1-1.64-4.18,6,6,0,0,1,.73-2.95,5.49,5.49,0,0,1,2-2.12,5.61,5.61,0,0,1,3-.79,5.44,5.44,0,0,1,2.84.73,4.59,4.59,0,0,1,1.82,2l-1.45.47a3.45,3.45,0,0,0-1.35-1.38,4,4,0,0,0-4,.1,4.26,4.26,0,0,0-1.51,1.61,4.88,4.88,0,0,0-.56,2.34,4.82,4.82,0,0,0,.57,2.34,4.7,4.7,0,0,0,1.52,1.67,3.76,3.76,0,0,0,2.09.62,4.17,4.17,0,0,0,2.65-1,2.33,2.33,0,0,0,.69-1l1.47.44a3.67,3.67,0,0,1-1,1.46,5.14,5.14,0,0,1-1.67,1A5.79,5.79,0,0,1,162.52,165.71Z"/><path class="cls-2" d="M178.38,165.71a5.6,5.6,0,0,1-2.3-.47,5.82,5.82,0,0,1-1.8-1.29,6,6,0,0,1-1.6-4.13,6.16,6.16,0,0,1,.42-2.28,6,6,0,0,1,1.19-1.88,5.51,5.51,0,0,1,4.09-1.76,5.49,5.49,0,0,1,2.27.47,5.61,5.61,0,0,1,1.8,1.29,6,6,0,0,1,1.19,1.88,6.36,6.36,0,0,1,.41,2.28,6.28,6.28,0,0,1-.41,2.25,6,6,0,0,1-1.18,1.88,5.7,5.7,0,0,1-1.8,1.29A5.57,5.57,0,0,1,178.38,165.71Zm-4.18-5.86a4.8,4.8,0,0,0,.56,2.3,4.43,4.43,0,0,0,1.51,1.64,3.91,3.91,0,0,0,4.18,0,4.63,4.63,0,0,0,1.52-1.67,4.84,4.84,0,0,0,.57-2.33,4.71,4.71,0,0,0-.57-2.29,4.6,4.6,0,0,0-1.52-1.66,3.76,3.76,0,0,0-2.09-.61,3.7,3.7,0,0,0-2.09.63,4.68,4.68,0,0,0-1.51,1.67A4.86,4.86,0,0,0,174.2,159.85Z"/><path class="cls-2" d="M200.15,165.49h-1.49v-6.36a5.57,5.57,0,0,0-.6-2.94,2.05,2.05,0,0,0-1.87-.93,3.78,3.78,0,0,0-1.73.43,5,5,0,0,0-1.51,1.15,4.51,4.51,0,0,0-.93,1.67v7h-1.5V154.07h1.36v2.61a5.13,5.13,0,0,1,1.21-1.46,5.83,5.83,0,0,1,1.7-1,5.42,5.42,0,0,1,2-.35,3.33,3.33,0,0,1,1.61.35,2.72,2.72,0,0,1,1.06,1,4.78,4.78,0,0,1,.57,1.56,11.2,11.2,0,0,1,.17,2Z"/><path class="cls-2" d="M216.93,165.49h-1.49v-6.36a5.57,5.57,0,0,0-.6-2.94,2.05,2.05,0,0,0-1.87-.93,3.78,3.78,0,0,0-1.73.43,4.85,4.85,0,0,0-1.51,1.15,4.68,4.68,0,0,0-.94,1.67v7H207.3V154.07h1.36v2.61a5.13,5.13,0,0,1,1.21-1.46,5.83,5.83,0,0,1,1.7-1,5.42,5.42,0,0,1,2-.35,3.33,3.33,0,0,1,1.61.35,2.63,2.63,0,0,1,1.05,1,4.57,4.57,0,0,1,.58,1.56,11.2,11.2,0,0,1,.17,2Z"/><path class="cls-2" d="M229,165.71a5.51,5.51,0,0,1-4.11-1.77,5.74,5.74,0,0,1-1.2-1.89,6.07,6.07,0,0,1-.43-2.3,5.88,5.88,0,0,1,.74-2.93,5.66,5.66,0,0,1,2-2.12,5.44,5.44,0,0,1,2.95-.8,5.35,5.35,0,0,1,3,.81,5.69,5.69,0,0,1,2,2.13,5.93,5.93,0,0,1,.72,2.89v.34a1.47,1.47,0,0,1,0,.25h-9.81a4.91,4.91,0,0,0,.69,2.18,4.57,4.57,0,0,0,1.52,1.51,3.89,3.89,0,0,0,2,.55,4.25,4.25,0,0,0,2.13-.57,3.16,3.16,0,0,0,1.39-1.49l1.3.35a4.17,4.17,0,0,1-1.08,1.47,5.3,5.3,0,0,1-1.7,1A6,6,0,0,1,229,165.71Zm-4.22-6.47h8.46a4.66,4.66,0,0,0-.67-2.17,4.12,4.12,0,0,0-1.52-1.47,4.16,4.16,0,0,0-4.1,0,4.25,4.25,0,0,0-1.5,1.48A4.58,4.58,0,0,0,224.81,159.24Z"/><path class="cls-2" d="M245.92,165.71a5.6,5.6,0,0,1-2.3-.47,5.93,5.93,0,0,1-1.83-1.3,6.26,6.26,0,0,1-.91-7.13,5.51,5.51,0,0,1,2-2.12,5.59,5.59,0,0,1,3-.79,5.4,5.4,0,0,1,2.83.73,4.67,4.67,0,0,1,1.83,2l-1.45.47a3.47,3.47,0,0,0-1.36-1.38,4,4,0,0,0-4,.1,4.34,4.34,0,0,0-1.51,1.61,4.88,4.88,0,0,0-.56,2.34,4.78,4.78,0,0,0,2.09,4,3.76,3.76,0,0,0,2.09.62,3.92,3.92,0,0,0,1.44-.27,3.83,3.83,0,0,0,1.21-.71,2.27,2.27,0,0,0,.7-1l1.47.44a3.88,3.88,0,0,1-1,1.46,5.29,5.29,0,0,1-1.68,1A5.74,5.74,0,0,1,245.92,165.71Z"/><path class="cls-2" d="M262.48,165a5.43,5.43,0,0,0-.55.24,5,5,0,0,1-.9.31,5.26,5.26,0,0,1-1.15.13,2.9,2.9,0,0,1-1.2-.25,2,2,0,0,1-.89-.73,2.19,2.19,0,0,1-.33-1.23v-8.24h-1.58v-1.19h1.58V150.2H259v3.87h2.64v1.19H259v7.82a1.19,1.19,0,0,0,.45.93,1.48,1.48,0,0,0,.94.31,2.9,2.9,0,0,0,1.12-.21,3.53,3.53,0,0,0,.61-.29Z"/><path class="cls-2" d="M277.92,169l.59,0a1.23,1.23,0,0,0,.42,0,1,1,0,0,0,.5-.31,3.61,3.61,0,0,0,.58-1c.22-.49.52-1.23.92-2.19l-5-11.43h1.58l4.2,9.9,3.87-9.9h1.5l-5.94,14.74a2.59,2.59,0,0,1-.46.78,2.27,2.27,0,0,1-.76.57,2.77,2.77,0,0,1-1.11.23,1.86,1.86,0,0,1-.41,0,3.25,3.25,0,0,1-.49-.05Z"/><path class="cls-2" d="M297.62,165.71a5.63,5.63,0,0,1-2.3-.47,5.82,5.82,0,0,1-1.8-1.29,6,6,0,0,1-1.18-1.88,6.28,6.28,0,0,1-.41-2.25,6.36,6.36,0,0,1,.41-2.28,6,6,0,0,1,1.19-1.88,5.57,5.57,0,0,1,8.16,0,6,6,0,0,1,1.19,1.88,6.16,6.16,0,0,1,.42,2.28,6,6,0,0,1-1.6,4.13,5.7,5.7,0,0,1-1.8,1.29A5.57,5.57,0,0,1,297.62,165.71Zm-4.18-5.86a4.8,4.8,0,0,0,.56,2.3,4.43,4.43,0,0,0,1.51,1.64,3.91,3.91,0,0,0,4.18,0,4.54,4.54,0,0,0,1.52-1.67,4.84,4.84,0,0,0,.57-2.33,4.71,4.71,0,0,0-.57-2.29,4.51,4.51,0,0,0-1.52-1.66,3.76,3.76,0,0,0-2.09-.61,3.7,3.7,0,0,0-2.09.63,4.68,4.68,0,0,0-1.51,1.67A4.86,4.86,0,0,0,293.44,159.85Z"/><path class="cls-2" d="M309.65,160.78v-6.71h1.5v6.44a5.09,5.09,0,0,0,.67,2.91,2.25,2.25,0,0,0,2,1,4.08,4.08,0,0,0,1.7-.38,4.58,4.58,0,0,0,1.47-1.1,4.84,4.84,0,0,0,1-1.65v-7.19h1.5v9.62a.65.65,0,0,0,.13.45.59.59,0,0,0,.4.16v1.19l-.42,0h-.29a1.25,1.25,0,0,1-.76-.35,1.09,1.09,0,0,1-.34-.74l0-1.54a5.55,5.55,0,0,1-4.82,2.81,3.17,3.17,0,0,1-2.72-1.25A6.11,6.11,0,0,1,309.65,160.78Z"/><path class="cls-2" d="M332.5,155.35a4.73,4.73,0,0,0-2.63.84,4.19,4.19,0,0,0-1.59,2.17v7.13h-1.5V154.07h1.41v2.71a5.47,5.47,0,0,1,1.57-2,3.82,3.82,0,0,1,2.08-.83l.39,0a1,1,0,0,1,.27,0Z"/><path class="cls-2" d="M361.33,154.07h1.48l-4.93,11.42h-1.3l-2.39-5.68-2.38,5.68h-1.3l-4.92-11.42H347l4.18,9.88,2.11-5.14-1.94-4.71h1.34l1.46,3.7,1.47-3.7H357l-1.91,4.71,2.11,5.14Z"/><path class="cls-2" d="M373.25,165.71a5.55,5.55,0,0,1-2.29-.47,5.74,5.74,0,0,1-1.81-1.29,6,6,0,0,1-1.59-4.13,6.36,6.36,0,0,1,.41-2.28,6,6,0,0,1,1.19-1.88,5.59,5.59,0,0,1,1.82-1.29,5.55,5.55,0,0,1,6.34,1.29,6,6,0,0,1,1.19,1.88,6.16,6.16,0,0,1,.42,2.28,6,6,0,0,1-1.6,4.13,5.47,5.47,0,0,1-4.08,1.76Zm-4.18-5.86a4.8,4.8,0,0,0,.56,2.3,4.43,4.43,0,0,0,1.51,1.64,3.91,3.91,0,0,0,4.18,0,4.54,4.54,0,0,0,1.52-1.67,4.84,4.84,0,0,0,.57-2.33,4.71,4.71,0,0,0-.57-2.29,4.51,4.51,0,0,0-1.52-1.66,3.76,3.76,0,0,0-2.09-.61,3.7,3.7,0,0,0-2.09.63,4.68,4.68,0,0,0-1.51,1.67A4.86,4.86,0,0,0,369.07,159.85Z"/><path class="cls-2" d="M391.11,155.35a4.73,4.73,0,0,0-2.63.84,4.19,4.19,0,0,0-1.59,2.17v7.13h-1.5V154.07h1.41v2.71a5.47,5.47,0,0,1,1.57-2,3.82,3.82,0,0,1,2.08-.83l.39,0a1,1,0,0,1,.27,0Z"/><path class="cls-2" d="M397.14,149.43h1.49V163a1.48,1.48,0,0,0,.31,1.13,1.08,1.08,0,0,0,.75.27,3.61,3.61,0,0,0,.79-.09l.68-.18.26,1.21a4.86,4.86,0,0,1-1,.29,6.25,6.25,0,0,1-1,.11,2.07,2.07,0,0,1-2.22-2.24Z"/><path class="cls-2" d="M406.24,159.82a6.53,6.53,0,0,1,.67-3,5.56,5.56,0,0,1,1.86-2.15,4.68,4.68,0,0,1,2.71-.81,4.48,4.48,0,0,1,2.56.76,5.81,5.81,0,0,1,1.77,1.83v-7.06h1.49v14.25a.67.67,0,0,0,.14.46.56.56,0,0,0,.39.16v1.19a2.91,2.91,0,0,1-.68,0,1.18,1.18,0,0,1-.81-.37,1.07,1.07,0,0,1-.36-.77v-1.12a5.07,5.07,0,0,1-1.84,1.78,4.87,4.87,0,0,1-2.42.66,5,5,0,0,1-2.19-.48,5.36,5.36,0,0,1-1.74-1.32,6.23,6.23,0,0,1-1.55-4.09Zm9.57,1.75v-3.51a3.84,3.84,0,0,0-.93-1.43,4.87,4.87,0,0,0-1.44-1,3.71,3.71,0,0,0-1.59-.38,3.66,3.66,0,0,0-1.67.38,3.93,3.93,0,0,0-1.29,1,4.65,4.65,0,0,0-.82,1.48,5.24,5.24,0,0,0-.29,1.7,4.85,4.85,0,0,0,.32,1.75,4.69,4.69,0,0,0,.91,1.48,4.14,4.14,0,0,0,1.37,1,4,4,0,0,0,1.67.35,3.41,3.41,0,0,0,1.18-.22,5.47,5.47,0,0,0,1.18-.6,3.55,3.55,0,0,0,.94-.91A2.66,2.66,0,0,0,415.81,161.57Z"/></svg>