<svg xmlns="http://www.w3.org/2000/svg" viewBox="0 0 455.66 178.83"><defs><style>.cls-1{fill:#42b76e;}.cls-2{fill:#727373;}.cls-3{fill:#7f7f7f;}</style></defs><title>Asset 1</title><g id="Layer_2" data-name="Layer 2"><g id="Layer_1-2" data-name="Layer 1"><path class="cls-1" d="M140.14,92.6v16.66a4.48,4.48,0,0,1-4.48,4.49H43.51a4.41,4.41,0,0,1-4.41-4.4V95.48a4.13,4.13,0,0,1,1-2.67l56.7-67h-52a4.2,4.2,0,0,1-4.2-4.2V5.11A4.61,4.61,0,0,1,45.19.5h88.75a4.31,4.31,0,0,1,4.31,4.31v14a4.13,4.13,0,0,1-1,2.67L80.57,88.49H136A4.1,4.1,0,0,1,140.14,92.6Z"/><path class="cls-2" d="M202.89,67.55q5.67,5.57,5.66,16.21v30h-6.87V84.43c0-5.28-1.32-9.32-4-12.09s-6.42-4.16-11.32-4.16q-8.22,0-13,4.89t-4.78,13.49v27.18h-6.87V28.84h6.87V71.28a18.49,18.49,0,0,1,7.73-6.87A25.43,25.43,0,0,1,187.66,62Q197.23,62,202.89,67.55Z"/><path class="cls-2" d="M367.54,65.24a23.16,23.16,0,0,1,9.09,9.14,27,27,0,0,1,3.29,13.44,27.1,27.1,0,0,1-3.29,13.45,23.46,23.46,0,0,1-9.09,9.18,25.75,25.75,0,0,1-13,3.29A23.94,23.94,0,0,1,343.12,111,20.88,20.88,0,0,1,335,103.2v10.54h-6.58V28.84h6.87V72.06a21.19,21.19,0,0,1,8.17-7.5A24,24,0,0,1,354.58,62,26.13,26.13,0,0,1,367.54,65.24Zm-3.77,39.94a17.38,17.38,0,0,0,6.82-7,22.92,22.92,0,0,0,0-20.7,17.38,17.38,0,0,0-6.82-7,20.26,20.26,0,0,0-19.39,0,17.45,17.45,0,0,0-6.77,7,22.92,22.92,0,0,0,0,20.7,17.45,17.45,0,0,0,6.77,7,20.26,20.26,0,0,0,19.39,0Z"/><path class="cls-2" d="M306.78,99.83V62h-6.87v29.9h0v7.94h0c-.17,3.82-14.17,6.9-31.43,6.9s-31.26-3.08-31.43-6.9h0V91.89h0V62h-6.87V99.83h0c0,7.69,17.16,13.92,38.32,13.92s38.32-6.23,38.32-13.92Z"/><path class="cls-3" d="M384.75,23.85c17.3,13.25,29,36.48,36.59,53.72A88.92,88.92,0,0,0,299.91,6.42C326.2,2.29,358.28,3.59,384.75,23.85Z"/><path class="cls-2" d="M1.43,150.24a10.3,10.3,0,0,1,4-4.13,11.38,11.38,0,0,1,5.81-1.47,11.34,11.34,0,0,1,7,2.06,9.72,9.72,0,0,1,3.63,5.7H17.7a5.88,5.88,0,0,0-2.28-3.31,7.09,7.09,0,0,0-4.22-1.22,6.78,6.78,0,0,0-5.29,2.25,9.18,9.18,0,0,0-2,6.35,9.36,9.36,0,0,0,2,6.42,6.75,6.75,0,0,0,5.29,2.26A7.12,7.12,0,0,0,15.39,164a5.94,5.94,0,0,0,2.31-3.36h4.11a10.1,10.1,0,0,1-3.69,5.65,11,11,0,0,1-6.92,2.11,11.37,11.37,0,0,1-5.81-1.46,10.25,10.25,0,0,1-4-4.16A13.21,13.21,0,0,1,0,156.47,13,13,0,0,1,1.43,150.24Z"/><path class="cls-2" d="M34.42,166.92a10.4,10.4,0,0,1-4.11-4.18,12.7,12.7,0,0,1-1.49-6.27,12.45,12.45,0,0,1,1.53-6.23,10.53,10.53,0,0,1,4.17-4.15,12.79,12.79,0,0,1,11.83,0,10.55,10.55,0,0,1,4.17,4.13,12.4,12.4,0,0,1,1.54,6.25,12.22,12.22,0,0,1-1.58,6.27,10.94,10.94,0,0,1-4.25,4.18,12.21,12.21,0,0,1-6,1.46A11.76,11.76,0,0,1,34.42,166.92Zm9.71-2.86A7.28,7.28,0,0,0,47,161.17a9.29,9.29,0,0,0,1.11-4.7,9.42,9.42,0,0,0-1.09-4.7,7.09,7.09,0,0,0-2.85-2.87,8.25,8.25,0,0,0-7.65,0,7,7,0,0,0-2.79,2.87,9.74,9.74,0,0,0-1.05,4.7,9.89,9.89,0,0,0,1,4.74,6.82,6.82,0,0,0,2.74,2.88,7.85,7.85,0,0,0,3.78.94A8,8,0,0,0,44.13,164.06Z"/><path class="cls-2" d="M78.44,147.14q2.59,2.54,2.6,7.32V168H77.27V155a7.42,7.42,0,0,0-1.72-5.26,6.15,6.15,0,0,0-4.7-1.83A6.3,6.3,0,0,0,66,149.8a7.76,7.76,0,0,0-1.78,5.5V168H60.44V145h3.82v3.27a7.6,7.6,0,0,1,3.08-2.72,9.53,9.53,0,0,1,4.3-1A9.32,9.32,0,0,1,78.44,147.14Z"/><path class="cls-2" d="M108.64,147.14q2.6,2.54,2.6,7.32V168h-3.77V155a7.42,7.42,0,0,0-1.72-5.26,6.15,6.15,0,0,0-4.7-1.83,6.27,6.27,0,0,0-4.8,1.89,7.71,7.71,0,0,0-1.79,5.5V168H90.65V145h3.81v3.27a7.63,7.63,0,0,1,3.09-2.72,9.47,9.47,0,0,1,4.3-1A9.32,9.32,0,0,1,108.64,147.14Z"/><path class="cls-2" d="M141.69,157.94H123.32a7.21,7.21,0,0,0,7.47,7.21,7,7,0,0,0,4.13-1.15,6.17,6.17,0,0,0,2.33-3.08h4.11a10,10,0,0,1-3.69,5.39,11.18,11.18,0,0,1-6.88,2.07,11.6,11.6,0,0,1-5.85-1.46,10.39,10.39,0,0,1-4-4.18,12.91,12.91,0,0,1-1.47-6.27,13.13,13.13,0,0,1,1.43-6.25,10,10,0,0,1,4-4.13,12,12,0,0,1,5.94-1.45,11.56,11.56,0,0,1,5.79,1.43,10,10,0,0,1,3.88,3.92,11.59,11.59,0,0,1,1.36,5.64A20.9,20.9,0,0,1,141.69,157.94Zm-4.78-6.86a6.24,6.24,0,0,0-2.62-2.39,8.24,8.24,0,0,0-3.67-.82,7.09,7.09,0,0,0-4.93,1.85,7.51,7.51,0,0,0-2.33,5.12h14.52A7,7,0,0,0,136.91,151.08Z"/><path class="cls-2" d="M150.21,150.24a10.3,10.3,0,0,1,4-4.13,12.58,12.58,0,0,1,12.8.59,9.72,9.72,0,0,1,3.63,5.7h-4.12a5.88,5.88,0,0,0-2.28-3.31,7.07,7.07,0,0,0-4.22-1.22,6.74,6.74,0,0,0-5.28,2.25,9.18,9.18,0,0,0-2,6.35,9.36,9.36,0,0,0,2,6.42,6.72,6.72,0,0,0,5.28,2.26,7.17,7.17,0,0,0,4.2-1.17,5.87,5.87,0,0,0,2.3-3.36h4.12a10.17,10.17,0,0,1-3.7,5.65,11,11,0,0,1-6.92,2.11,11.4,11.4,0,0,1-5.81-1.46,10.25,10.25,0,0,1-4-4.16,13.21,13.21,0,0,1-1.43-6.29A13,13,0,0,1,150.21,150.24Z"/><path class="cls-2" d="M183.68,148.17v13.54a3.24,3.24,0,0,0,.72,2.38,3.51,3.51,0,0,0,2.47.69h2.81V168h-3.44a6.84,6.84,0,0,1-4.78-1.47q-1.59-1.47-1.59-4.83V148.17h-3V145h3v-5.79h3.81V145h6v3.15Z"/><path class="cls-2" d="M232,145l-13.84,33.81h-3.94l4.53-11.08L209.48,145h4.24l7.21,18.62L228.06,145Z"/><path class="cls-2" d="M243.35,166.92a10.4,10.4,0,0,1-4.11-4.18,12.8,12.8,0,0,1-1.49-6.27,12.45,12.45,0,0,1,1.53-6.23,10.49,10.49,0,0,1,4.18-4.15,12.77,12.77,0,0,1,11.82,0,10.51,10.51,0,0,1,4.18,4.13,13.42,13.42,0,0,1,0,12.52,10.9,10.9,0,0,1-4.26,4.18,12.21,12.21,0,0,1-6,1.46A11.76,11.76,0,0,1,243.35,166.92Zm9.71-2.86a7.31,7.31,0,0,0,2.92-2.89,9.29,9.29,0,0,0,1.11-4.7,9.52,9.52,0,0,0-1.09-4.7,7.22,7.22,0,0,0-2.85-2.87,8.27,8.27,0,0,0-7.66,0,7,7,0,0,0-2.79,2.87,9.74,9.74,0,0,0-1,4.7,9.89,9.89,0,0,0,1,4.74,6.79,6.79,0,0,0,2.75,2.88,7.78,7.78,0,0,0,3.77.94A8,8,0,0,0,253.06,164.06Z"/><path class="cls-2" d="M289.77,145v23H286v-3.4a7.51,7.51,0,0,1-3,2.75,9.5,9.5,0,0,1-4.3,1,10.35,10.35,0,0,1-4.83-1.11,8.07,8.07,0,0,1-3.37-3.33,11,11,0,0,1-1.24-5.41V145h3.77v13a7.29,7.29,0,0,0,1.73,5.22,6.12,6.12,0,0,0,4.69,1.83,6.3,6.3,0,0,0,4.83-1.89,7.79,7.79,0,0,0,1.76-5.49V145Z"/><path class="cls-2" d="M306.27,145.69a8.84,8.84,0,0,1,4.55-1.09v3.94h-1q-6.42,0-6.42,7V168h-3.82V145h3.82v3.73A7.37,7.37,0,0,1,306.27,145.69Z"/><path class="cls-2" d="M363.76,145l-7.18,23h-3.94l-5.53-18.25L341.57,168h-3.94l-7.22-23h3.9l5.29,19.3,5.7-19.3h3.9l5.58,19.34L360,145Z"/><path class="cls-2" d="M375.06,166.92a10.4,10.4,0,0,1-4.11-4.18,12.8,12.8,0,0,1-1.49-6.27,12.45,12.45,0,0,1,1.53-6.23,10.56,10.56,0,0,1,4.18-4.15,12.79,12.79,0,0,1,11.83,0,10.55,10.55,0,0,1,4.17,4.13,12.4,12.4,0,0,1,1.53,6.25,12.21,12.21,0,0,1-1.57,6.27,10.9,10.9,0,0,1-4.26,4.18,12.21,12.21,0,0,1-6,1.46A11.76,11.76,0,0,1,375.06,166.92Zm9.71-2.86a7.31,7.31,0,0,0,2.92-2.89,9.29,9.29,0,0,0,1.11-4.7,9.42,9.42,0,0,0-1.09-4.7,7.22,7.22,0,0,0-2.85-2.87,8.27,8.27,0,0,0-7.66,0,7,7,0,0,0-2.79,2.87,9.74,9.74,0,0,0-1.05,4.7,10,10,0,0,0,1,4.74,6.85,6.85,0,0,0,2.75,2.88,7.78,7.78,0,0,0,3.77.94A8,8,0,0,0,384.77,164.06Z"/><path class="cls-2" d="M407.78,145.69a8.84,8.84,0,0,1,4.55-1.09v3.94h-1q-6.42,0-6.42,7V168h-3.82V145h3.82v3.73A7.37,7.37,0,0,1,407.78,145.69Z"/><path class="cls-2" d="M423.91,137v31h-3.82V137Z"/><path class="cls-2" d="M433.76,150.24a10.43,10.43,0,0,1,3.93-4.13,10.81,10.81,0,0,1,5.6-1.47,10.45,10.45,0,0,1,5,1.24,9,9,0,0,1,3.52,3.25V137h3.86v31H451.8v-4.32a8.88,8.88,0,0,1-3.35,3.37,10,10,0,0,1-5.2,1.32,10.49,10.49,0,0,1-9.49-5.74,13.22,13.22,0,0,1-1.42-6.21A12.94,12.94,0,0,1,433.76,150.24Zm17,1.7a7.48,7.48,0,0,0-2.83-3,8.07,8.07,0,0,0-7.82,0,7.25,7.25,0,0,0-2.81,2.94,9.36,9.36,0,0,0-1.05,4.53,9.54,9.54,0,0,0,1.05,4.59,7.36,7.36,0,0,0,2.81,3,7.53,7.53,0,0,0,3.9,1,7.65,7.65,0,0,0,3.92-1,7.34,7.34,0,0,0,2.83-3,10.34,10.34,0,0,0,0-9.08Z"/></g></g></svg>