<svg id="Layer_1" data-name="Layer 1" xmlns="http://www.w3.org/2000/svg" viewBox="0 0 578.9 196.92"><defs><style>.cls-1,.cls-4{fill:#42b76e;}.cls-2{fill:#727373;}.cls-3{fill:#7f7f7f;}.cls-4{font-size:32.56px;font-family:Poppins-Medium, Poppins;font-weight:500;}</style></defs><title>Artboard 31 copy</title><path class="cls-1" d="M200.29,112.26v15.32a4.12,4.12,0,0,1-4.12,4.12H111.49a4,4,0,0,1-4-4V114.91a3.78,3.78,0,0,1,.9-2.45l52.1-61.61H112.66A3.86,3.86,0,0,1,108.8,47V31.87A4.23,4.23,0,0,1,113,27.64h81.55a4,4,0,0,1,4,4V44.43a3.78,3.78,0,0,1-.9,2.45l-52.1,61.61h51A3.77,3.77,0,0,1,200.29,112.26Z"/><path class="cls-2" d="M258,89.25q5.21,5.11,5.2,14.89V131.7h-6.31V104.76q0-7.29-3.65-11.11T242.8,89.83q-7.56,0-12,4.49t-4.4,12.4v25h-6.31v-78h6.31v39a17.23,17.23,0,0,1,7.11-6.31A23.38,23.38,0,0,1,244,84.14Q252.76,84.14,258,89.25Z"/><path class="cls-2" d="M409.25,87.12a21.35,21.35,0,0,1,8.35,8.4,26.78,26.78,0,0,1,0,24.71,21.51,21.51,0,0,1-8.35,8.44,23.71,23.71,0,0,1-11.91,3,22,22,0,0,1-10.53-2.49,19.22,19.22,0,0,1-7.51-7.2v9.69h-6.05v-78h6.31V93.39a19.51,19.51,0,0,1,7.51-6.89,22.15,22.15,0,0,1,10.27-2.35A24.08,24.08,0,0,1,409.25,87.12Zm-3.47,36.71a16,16,0,0,0,6.27-6.44,21.06,21.06,0,0,0,0-19,16,16,0,0,0-6.27-6.45,18.69,18.69,0,0,0-17.82,0,16.11,16.11,0,0,0-6.22,6.45,21.06,21.06,0,0,0,0,19,16.15,16.15,0,0,0,6.22,6.44,18.62,18.62,0,0,0,17.82,0Z"/><path class="cls-2" d="M353.41,118.91V84.14H347.1v27.48h0v7.29h0c-.15,3.51-13,6.35-28.88,6.35s-28.72-2.84-28.88-6.35h0v-7.29h0V84.14H283v34.77h0c0,7.07,15.77,12.79,35.21,12.79s35.21-5.72,35.21-12.79Z"/><path class="cls-3" d="M425.06,49.09c15.9,12.18,26.67,33.53,33.62,49.37A81.7,81.7,0,0,0,347.1,33.08C371.26,29.28,400.74,30.48,425.06,49.09Z"/><text class="cls-4" transform="translate(131.77 176.04)">c<tspan class="cls-2" x="19.53" y="0">onnect </tspan><tspan x="142.75" y="0">y</tspan><tspan class="cls-2" x="161.7" y="0">our </tspan><tspan x="224.57" y="0">w</tspan><tspan class="cls-2" x="251.42" y="0">orld</tspan></text></svg>