<svg id="Layer_1" data-name="Layer 1" xmlns="http://www.w3.org/2000/svg" viewBox="0 0 578.9 196.92"><defs><style>.cls-1{fill:#42b76e;}.cls-2{fill:#727373;}.cls-3{fill:#aaa;}</style></defs><title>Artboard 31</title><path class="cls-1" d="M166.72,149.07v22.62a6.09,6.09,0,0,1-6.09,6.09H35.55a6,6,0,0,1-6-6V153a5.61,5.61,0,0,1,1.33-3.62l77-91H37.28a5.71,5.71,0,0,1-5.71-5.71V30.32a6.26,6.26,0,0,1,6.26-6.26H158.29a5.85,5.85,0,0,1,5.85,5.85v19a5.67,5.67,0,0,1-1.32,3.63l-77,91h75.28A5.58,5.58,0,0,1,166.72,149.07Z"/><path class="cls-2" d="M251.89,115.08q7.68,7.55,7.68,22v40.7h-9.32V138q0-10.75-5.39-16.41t-15.36-5.64q-11.16,0-17.65,6.63t-6.5,18.31v36.9H196V62.53h9.32v57.6a25.29,25.29,0,0,1,10.5-9.32,34.42,34.42,0,0,1,15.36-3.28Q244.2,107.53,251.89,115.08Z"/><path class="cls-2" d="M475.38,111.93a31.47,31.47,0,0,1,12.34,12.41,39.55,39.55,0,0,1,0,36.49,32,32,0,0,1-12.34,12.48,35.14,35.14,0,0,1-17.59,4.46,32.53,32.53,0,0,1-15.56-3.68,28.31,28.31,0,0,1-11.1-10.63v14.31h-8.92V62.53h9.32v58.66A28.69,28.69,0,0,1,442.62,111a32.65,32.65,0,0,1,15.17-3.48A35.52,35.52,0,0,1,475.38,111.93Zm-5.12,54.22a23.57,23.57,0,0,0,9.25-9.52,31.12,31.12,0,0,0,0-28.09,23.57,23.57,0,0,0-9.25-9.52,27.54,27.54,0,0,0-26.33,0,23.81,23.81,0,0,0-9.19,9.52,31.2,31.2,0,0,0,0,28.09,23.81,23.81,0,0,0,9.19,9.52,27.54,27.54,0,0,0,26.33,0Z"/><rect class="cls-2" x="288.88" y="107.52" width="9.32" height="51.36"/><rect class="cls-2" x="383.57" y="107.52" width="9.32" height="51.36"/><path class="cls-2" d="M383.57,148.11v10.78h0c-.23,5.18-19.23,9.37-42.66,9.37s-42.43-4.19-42.67-9.37h0V148.11c-5.86,3.06-9.32,6.77-9.32,10.78,0,10.43,23.28,18.89,52,18.89s52-8.46,52-18.89C392.9,154.88,389.44,151.17,383.57,148.11Z"/><path class="cls-3" d="M490.16,46.72c23.49,18,39.39,49.52,49.67,72.92A120.69,120.69,0,0,0,375,23.06C410.69,17.45,454.24,19.22,490.16,46.72Z"/></svg>