<svg id="Layer_1" data-name="Layer 1" xmlns="http://www.w3.org/2000/svg" viewBox="0 0 578.9 196.92"><defs><style>.cls-1{fill:#42b76e;}.cls-2{fill:#727373;}.cls-3{fill:#7f7f7f;}</style></defs><title>Artboard 31 copy</title><path class="cls-1" d="M206.68,141.3v15.31a4.13,4.13,0,0,1-4.12,4.13H117.88a4,4,0,0,1-4-4.05V144a3.82,3.82,0,0,1,.9-2.46l52.1-61.61H119.05A3.86,3.86,0,0,1,115.19,76V60.91a4.24,4.24,0,0,1,4.24-4.24H201a4,4,0,0,1,4,4V73.46a3.82,3.82,0,0,1-.9,2.46l-52.1,61.6h51A3.77,3.77,0,0,1,206.68,141.3Z"/><path class="cls-2" d="M264.34,92.53q5.21,5.11,5.2,14.89V135h-6.31V108q0-7.29-3.65-11.11t-10.39-3.82q-7.56,0-12,4.49t-4.4,12.4v25h-6.31V57h6.31V96a17.16,17.16,0,0,1,7.11-6.31,23.38,23.38,0,0,1,10.4-2.22Q259.15,87.42,264.34,92.53Z"/><path class="cls-2" d="M415.64,90.4A21.35,21.35,0,0,1,424,98.8a26.78,26.78,0,0,1,0,24.71,21.58,21.58,0,0,1-8.35,8.44,23.7,23.7,0,0,1-11.91,3,22,22,0,0,1-10.53-2.49,19.12,19.12,0,0,1-7.51-7.19V135h-6.05V57H386V96.67a19.51,19.51,0,0,1,7.51-6.89,22.16,22.16,0,0,1,10.27-2.36A24.09,24.09,0,0,1,415.64,90.4Zm-3.47,36.71a16,16,0,0,0,6.27-6.45,21.06,21.06,0,0,0,0-19,16,16,0,0,0-6.27-6.44,18.62,18.62,0,0,0-17.82,0,16.15,16.15,0,0,0-6.22,6.44,21.06,21.06,0,0,0,0,19,16.11,16.11,0,0,0,6.22,6.45,18.62,18.62,0,0,0,17.82,0Z"/><path class="cls-2" d="M359.8,122.19V87.42h-6.31V114.9h0v7.29h0c-.16,3.51-13,6.34-28.89,6.34s-28.72-2.83-28.88-6.34h0V114.9h0V87.42h-6.31v34.77h0c0,7.06,15.77,12.79,35.21,12.79s35.21-5.73,35.21-12.79Z"/><path class="cls-3" d="M431.45,52.37c15.9,12.17,26.67,33.52,33.62,49.37A81.7,81.7,0,0,0,353.49,36.36C377.65,32.55,407.13,33.75,431.45,52.37Z"/><path class="cls-1" d="M227.32,150.57a5.75,5.75,0,0,1,2.22-2.31,7.05,7.05,0,0,1,7.1.29,5.44,5.44,0,0,1,2.05,3.14h-2.86a3,3,0,0,0-1.11-1.48,3.58,3.58,0,0,0-4.52.61,5.9,5.9,0,0,0,0,6.45,3.22,3.22,0,0,0,2.59,1.16,2.93,2.93,0,0,0,3-2h2.86a5.73,5.73,0,0,1-2.09,3.1,6.2,6.2,0,0,1-3.81,1.15,6.36,6.36,0,0,1-3.25-.83,5.84,5.84,0,0,1-2.22-2.32,7.93,7.93,0,0,1,0-6.94Z"/><path class="cls-1" d="M243.61,159.83a6,6,0,0,1-2.3-2.32,7.1,7.1,0,0,1-.83-3.47,6.78,6.78,0,0,1,.86-3.46,5.87,5.87,0,0,1,2.34-2.32,7.13,7.13,0,0,1,6.64,0,5.89,5.89,0,0,1,2.35,2.32,7.32,7.32,0,0,1,0,6.92,6.13,6.13,0,0,1-2.41,2.33,6.9,6.9,0,0,1-3.35.83A6.58,6.58,0,0,1,243.61,159.83Zm5.19-2a3.7,3.7,0,0,0,1.45-1.46,4.62,4.62,0,0,0,.56-2.37,4.87,4.87,0,0,0-.53-2.36,3.61,3.61,0,0,0-1.42-1.45,3.93,3.93,0,0,0-3.8,0,3.46,3.46,0,0,0-1.38,1.45,5,5,0,0,0-.51,2.36,4.45,4.45,0,0,0,1.06,3.19,3.49,3.49,0,0,0,2.66,1.13A4,4,0,0,0,248.8,157.87Z"/><path class="cls-1" d="M265.31,148.07a4.47,4.47,0,0,1,1.87,1.86,6.09,6.09,0,0,1,.68,3v7.55h-2.63v-7.16a3.67,3.67,0,0,0-.86-2.63,3,3,0,0,0-2.34-.92,3.11,3.11,0,0,0-2.36.92,3.68,3.68,0,0,0-.87,2.63v7.16h-2.65v-12.8h2.65v1.46a4.51,4.51,0,0,1,1.66-1.23,5.37,5.37,0,0,1,2.15-.44A5.69,5.69,0,0,1,265.31,148.07Z"/><path class="cls-1" d="M280.38,148.07a4.47,4.47,0,0,1,1.87,1.86,6.09,6.09,0,0,1,.68,3v7.55H280.3v-7.16a3.67,3.67,0,0,0-.86-2.63,3,3,0,0,0-2.34-.92,3.11,3.11,0,0,0-2.36.92,3.68,3.68,0,0,0-.87,2.63v7.16h-2.65v-12.8h2.65v1.46a4.51,4.51,0,0,1,1.66-1.23,5.37,5.37,0,0,1,2.15-.44A5.69,5.69,0,0,1,280.38,148.07Z"/><path class="cls-1" d="M297.93,155h-9.78a3.53,3.53,0,0,0,3.65,3.39,3.11,3.11,0,0,0,3-1.79h2.85a5.78,5.78,0,0,1-2.1,2.89,6.16,6.16,0,0,1-3.77,1.13,6.54,6.54,0,0,1-3.29-.83,5.76,5.76,0,0,1-2.27-2.32,7.1,7.1,0,0,1-.83-3.47,7.26,7.26,0,0,1,.8-3.47,5.69,5.69,0,0,1,2.25-2.31,6.64,6.64,0,0,1,3.34-.82,6.56,6.56,0,0,1,3.22.79,5.62,5.62,0,0,1,2.21,2.22,6.65,6.65,0,0,1,.79,3.29A8.56,8.56,0,0,1,297.93,155Zm-2.67-2.14a3,3,0,0,0-1.05-2.35,3.76,3.76,0,0,0-2.53-.88,3.44,3.44,0,0,0-2.35.87,3.68,3.68,0,0,0-1.16,2.36Z"/><path class="cls-1" d="M300.54,150.57a5.62,5.62,0,0,1,2.22-2.31,7,7,0,0,1,7.09.29,5.45,5.45,0,0,1,2.06,3.14h-2.86a3,3,0,0,0-1.11-1.48,3.3,3.3,0,0,0-1.93-.54,3.21,3.21,0,0,0-2.59,1.15,5.9,5.9,0,0,0,0,6.45,3.19,3.19,0,0,0,2.59,1.16,3,3,0,0,0,3-2h2.86a5.79,5.79,0,0,1-2.09,3.1,6.25,6.25,0,0,1-3.81,1.15,6.31,6.31,0,0,1-3.25-.83,5.71,5.71,0,0,1-2.22-2.32,7.93,7.93,0,0,1,0-6.94Z"/><path class="cls-1" d="M317.64,149.81v7.08a1.36,1.36,0,0,0,.34,1,1.67,1.67,0,0,0,1.15.31h1.62v2.21h-2.09a4,4,0,0,1-2.74-.84,3.46,3.46,0,0,1-.95-2.72v-7.08h-1.51v-2.16H315v-3.18h2.67v3.18h3.11v2.16Z"/><path class="cls-1" d="M340.75,147.65l-7.85,18.81h-2.74l2.6-6.22-5-12.59h2.95l3.6,9.75,3.74-9.75Z"/><path class="cls-1" d="M345,159.83a5.9,5.9,0,0,1-2.3-2.32,7,7,0,0,1-.84-3.47,6.88,6.88,0,0,1,.86-3.46,5.89,5.89,0,0,1,2.35-2.32,7.13,7.13,0,0,1,6.64,0,5.87,5.87,0,0,1,2.34,2.32,7.32,7.32,0,0,1,0,6.92,6.18,6.18,0,0,1-2.4,2.33,7,7,0,0,1-3.36.83A6.52,6.52,0,0,1,345,159.83Zm5.19-2a3.77,3.77,0,0,0,1.45-1.46,5.36,5.36,0,0,0,0-4.73,3.58,3.58,0,0,0-1.41-1.45,3.85,3.85,0,0,0-1.91-.49,3.75,3.75,0,0,0-1.89.49,3.46,3.46,0,0,0-1.38,1.45,5,5,0,0,0-.51,2.36,4.49,4.49,0,0,0,1.05,3.19,3.51,3.51,0,0,0,2.66,1.13A4,4,0,0,0,350.21,157.87Z"/><path class="cls-1" d="M369.14,147.65v12.8H366.5v-1.51a4.38,4.38,0,0,1-1.64,1.24,5.21,5.21,0,0,1-2.15.45A5.81,5.81,0,0,1,360,160a4.49,4.49,0,0,1-1.88-1.86,6,6,0,0,1-.69-3v-7.53h2.63v7.13a3.73,3.73,0,0,0,.85,2.64,3.5,3.5,0,0,0,4.71,0,3.69,3.69,0,0,0,.87-2.64v-7.13Z"/><path class="cls-1" d="M376.82,148a4.59,4.59,0,0,1,2.29-.55v2.74h-.68a3.22,3.22,0,0,0-2.35.79,3.75,3.75,0,0,0-.81,2.74v6.74h-2.64v-12.8h2.64v1.86A4.18,4.18,0,0,1,376.82,148Z"/><path class="cls-1" d="M404.77,147.65l-4,12.8H398L395.43,151l-2.58,9.45h-2.78l-4-12.8h2.7l2.67,10.29,2.71-10.29h2.77l2.6,10.24,2.64-10.24Z"/><path class="cls-1" d="M409,159.83a5.87,5.87,0,0,1-2.29-2.32,7,7,0,0,1-.84-3.47,6.88,6.88,0,0,1,.86-3.46,5.87,5.87,0,0,1,2.34-2.32,7.15,7.15,0,0,1,6.65,0,5.87,5.87,0,0,1,2.34,2.32,6.88,6.88,0,0,1,.86,3.46,6.72,6.72,0,0,1-.88,3.46,6.13,6.13,0,0,1-2.41,2.33,6.9,6.9,0,0,1-3.35.83A6.58,6.58,0,0,1,409,159.83Zm5.19-2a3.79,3.79,0,0,0,1.46-1.46,4.72,4.72,0,0,0,.55-2.37,4.87,4.87,0,0,0-.53-2.36,3.61,3.61,0,0,0-1.42-1.45,3.82,3.82,0,0,0-1.9-.49,3.75,3.75,0,0,0-1.89.49,3.48,3.48,0,0,0-1.39,1.45,5,5,0,0,0-.51,2.36,4.5,4.5,0,0,0,1.06,3.19,3.49,3.49,0,0,0,2.66,1.13A4,4,0,0,0,414.2,157.87Z"/><path class="cls-1" d="M425.75,148a4.58,4.58,0,0,1,2.28-.55v2.74h-.67A3.26,3.26,0,0,0,425,151a3.8,3.8,0,0,0-.8,2.74v6.74h-2.65v-12.8h2.65v1.86A4.11,4.11,0,0,1,425.75,148Z"/><path class="cls-1" d="M433.12,143.26v17.19h-2.65V143.26Z"/><path class="cls-1" d="M436.52,150.58a5.85,5.85,0,0,1,5.26-3.14,6,6,0,0,1,2.47.55,5.08,5.08,0,0,1,1.94,1.45v-6.18h2.67v17.19h-2.67v-1.93a4.86,4.86,0,0,1-1.8,1.53,5.58,5.58,0,0,1-2.63.61,5.78,5.78,0,0,1-3.06-.85,6,6,0,0,1-2.18-2.37,7.32,7.32,0,0,1-.8-3.45A7.12,7.12,0,0,1,436.52,150.58Zm9.13,1.16a3.88,3.88,0,0,0-1.43-1.49,3.77,3.77,0,0,0-1.91-.51,3.83,3.83,0,0,0-1.9.5A3.72,3.72,0,0,0,439,151.7a4.64,4.64,0,0,0-.54,2.29,4.79,4.79,0,0,0,.54,2.32,3.81,3.81,0,0,0,3.33,2.05,3.77,3.77,0,0,0,1.91-.51,3.84,3.84,0,0,0,1.43-1.5,4.75,4.75,0,0,0,.54-2.31A4.68,4.68,0,0,0,445.65,151.74Z"/></svg>