<svg id="Layer_1" data-name="Layer 1" xmlns="http://www.w3.org/2000/svg" viewBox="0 0 578.9 196.92"><defs><style>.cls-1{fill:#42b76e;}.cls-2{fill:#727373;}.cls-3{fill:#7f7f7f;}</style></defs><title>Artboard 31 copy</title><path class="cls-1" d="M200.29,112.26v15.32a4.12,4.12,0,0,1-4.12,4.12H111.49a4,4,0,0,1-4-4V114.91a3.78,3.78,0,0,1,.9-2.45l52.1-61.61H112.66A3.86,3.86,0,0,1,108.8,47V31.87A4.23,4.23,0,0,1,113,27.64h81.55a4,4,0,0,1,4,4V44.43a3.78,3.78,0,0,1-.9,2.45l-52.1,61.61h51A3.77,3.77,0,0,1,200.29,112.26Z"/><path class="cls-2" d="M258,89.25q5.21,5.11,5.2,14.89V131.7h-6.31V104.76q0-7.29-3.65-11.11T242.8,89.83q-7.56,0-12,4.49t-4.4,12.4v25h-6.31v-78h6.31v39a17.23,17.23,0,0,1,7.11-6.31A23.38,23.38,0,0,1,244,84.14Q252.76,84.14,258,89.25Z"/><path class="cls-2" d="M409.25,87.12a21.35,21.35,0,0,1,8.35,8.4,26.78,26.78,0,0,1,0,24.71,21.51,21.51,0,0,1-8.35,8.44,23.71,23.71,0,0,1-11.91,3,22,22,0,0,1-10.53-2.49,19.22,19.22,0,0,1-7.51-7.2v9.69h-6.05v-78h6.31V93.39a19.51,19.51,0,0,1,7.51-6.89,22.15,22.15,0,0,1,10.27-2.35A24.08,24.08,0,0,1,409.25,87.12Zm-3.47,36.71a16,16,0,0,0,6.27-6.44,21.06,21.06,0,0,0,0-19,16,16,0,0,0-6.27-6.45,18.69,18.69,0,0,0-17.82,0,16.11,16.11,0,0,0-6.22,6.45,21.06,21.06,0,0,0,0,19,16.15,16.15,0,0,0,6.22,6.44,18.62,18.62,0,0,0,17.82,0Z"/><path class="cls-2" d="M353.41,118.91V84.14H347.1v27.48h0v7.29h0c-.15,3.51-13,6.35-28.88,6.35s-28.72-2.84-28.88-6.35h0v-7.29h0V84.14H283v34.77h0c0,7.07,15.77,12.79,35.21,12.79s35.21-5.72,35.21-12.79Z"/><path class="cls-3" d="M425.06,49.09c15.9,12.18,26.67,33.53,33.62,49.37A81.7,81.7,0,0,0,347.1,33.08C371.26,29.28,400.74,30.48,425.06,49.09Z"/><path class="cls-1" d="M134.1,162.19a8,8,0,0,1,3.11-3.24,9.95,9.95,0,0,1,9.94.4,7.59,7.59,0,0,1,2.88,4.42h-4a4.31,4.31,0,0,0-1.56-2.09,4.62,4.62,0,0,0-2.7-.75,4.54,4.54,0,0,0-3.64,1.61,8.24,8.24,0,0,0,0,9,4.52,4.52,0,0,0,3.64,1.63,4.13,4.13,0,0,0,4.26-2.84h4a7.94,7.94,0,0,1-2.93,4.35,8.66,8.66,0,0,1-5.33,1.61,8.88,8.88,0,0,1-4.56-1.15,8.08,8.08,0,0,1-3.11-3.26,11,11,0,0,1,0-9.73Z"/><path class="cls-2" d="M156.94,175.18a8.3,8.3,0,0,1-3.23-3.26,9.83,9.83,0,0,1-1.17-4.87,9.57,9.57,0,0,1,1.21-4.85A8.27,8.27,0,0,1,157,159a10.07,10.07,0,0,1,9.31,0,8.29,8.29,0,0,1,3.29,3.25,9.57,9.57,0,0,1,1.21,4.85,9.46,9.46,0,0,1-1.24,4.85,8.5,8.5,0,0,1-3.37,3.28,9.7,9.7,0,0,1-4.7,1.15A9.15,9.15,0,0,1,156.94,175.18Zm7.27-2.75a5.18,5.18,0,0,0,2-2.06,6.58,6.58,0,0,0,.78-3.32,6.71,6.71,0,0,0-.75-3.3,5.08,5.08,0,0,0-2-2,5.46,5.46,0,0,0-2.67-.68,5.39,5.39,0,0,0-2.65.68,5,5,0,0,0-1.94,2,7.06,7.06,0,0,0-.71,3.3,6.27,6.27,0,0,0,1.48,4.48,4.91,4.91,0,0,0,3.73,1.58A5.56,5.56,0,0,0,164.21,172.43Z"/><path class="cls-2" d="M187.36,158.69a6.2,6.2,0,0,1,2.62,2.6,8.57,8.57,0,0,1,.94,4.17V176h-3.67V166a5.21,5.21,0,0,0-1.21-3.69,4.85,4.85,0,0,0-6.59,0,5.12,5.12,0,0,0-1.22,3.69v10h-3.71V158.1h3.71v2.05a6,6,0,0,1,2.32-1.72,7.36,7.36,0,0,1,3-.62A8,8,0,0,1,187.36,158.69Z"/><path class="cls-2" d="M208.49,158.69a6.25,6.25,0,0,1,2.62,2.6,8.57,8.57,0,0,1,.94,4.17V176h-3.68V166a5.2,5.2,0,0,0-1.2-3.69,4.85,4.85,0,0,0-6.59,0,5.12,5.12,0,0,0-1.22,3.69v10h-3.72V158.1h3.72v2.05a6,6,0,0,1,2.32-1.72,7.34,7.34,0,0,1,3-.62A8,8,0,0,1,208.49,158.69Z"/><path class="cls-2" d="M233.08,168.45h-13.7A5,5,0,0,0,221,171.9a5.05,5.05,0,0,0,3.52,1.31,4.34,4.34,0,0,0,4.23-2.51h4a8.12,8.12,0,0,1-2.95,4.05,8.6,8.6,0,0,1-5.29,1.58,9.17,9.17,0,0,1-4.61-1.15,8.27,8.27,0,0,1-3.19-3.26,9.93,9.93,0,0,1-1.15-4.87,10.13,10.13,0,0,1,1.12-4.86,7.89,7.89,0,0,1,3.16-3.24,9.37,9.37,0,0,1,4.67-1.14,9.19,9.19,0,0,1,4.52,1.1,7.86,7.86,0,0,1,3.1,3.11,9.46,9.46,0,0,1,1.1,4.61A11.2,11.2,0,0,1,233.08,168.45Zm-3.74-3a4.2,4.2,0,0,0-1.47-3.29,5.23,5.23,0,0,0-3.54-1.24,4.77,4.77,0,0,0-3.29,1.22,5.12,5.12,0,0,0-1.63,3.31Z"/><path class="cls-2" d="M236.75,162.19a7.94,7.94,0,0,1,3.1-3.24,10,10,0,0,1,10,.4,7.64,7.64,0,0,1,2.88,4.42h-4a4.31,4.31,0,0,0-1.56-2.09,4.63,4.63,0,0,0-2.71-.75,4.5,4.5,0,0,0-3.63,1.61,8.24,8.24,0,0,0,0,9,4.49,4.49,0,0,0,3.63,1.63,4.13,4.13,0,0,0,4.27-2.84h4a8,8,0,0,1-2.93,4.35,8.67,8.67,0,0,1-5.34,1.61,8.93,8.93,0,0,1-4.56-1.15,8.05,8.05,0,0,1-3.1-3.26,11,11,0,0,1,0-9.73Z"/><path class="cls-2" d="M260.72,161.13v9.93a1.9,1.9,0,0,0,.48,1.45,2.35,2.35,0,0,0,1.61.44h2.27V176h-2.92a5.66,5.66,0,0,1-3.85-1.17,4.83,4.83,0,0,1-1.33-3.81v-9.93h-2.12v-3H257v-4.46h3.74v4.46h4.36v3Z"/><path class="cls-1" d="M293.12,158.1l-11,26.37h-3.84l3.65-8.72-7.07-17.65H279l5,13.67,5.24-13.67Z"/><path class="cls-2" d="M299.1,175.18a8.34,8.34,0,0,1-3.22-3.26,9.83,9.83,0,0,1-1.17-4.87,9.66,9.66,0,0,1,1.2-4.85A8.36,8.36,0,0,1,299.2,159a10.07,10.07,0,0,1,9.31,0,8.29,8.29,0,0,1,3.29,3.25,9.67,9.67,0,0,1,1.21,4.85,9.46,9.46,0,0,1-1.24,4.85,8.57,8.57,0,0,1-3.37,3.28,9.7,9.7,0,0,1-4.7,1.15A9.21,9.21,0,0,1,299.1,175.18Zm7.28-2.75a5.25,5.25,0,0,0,2-2.06,6.58,6.58,0,0,0,.78-3.32,6.71,6.71,0,0,0-.75-3.3,5.08,5.08,0,0,0-2-2,5.46,5.46,0,0,0-2.67-.68,5.39,5.39,0,0,0-2.65.68,5,5,0,0,0-1.94,2,6.94,6.94,0,0,0-.71,3.3,6.27,6.27,0,0,0,1.48,4.48,4.91,4.91,0,0,0,3.73,1.58A5.59,5.59,0,0,0,306.38,172.43Z"/><path class="cls-2" d="M332.93,158.1V176h-3.71v-2.12a6,6,0,0,1-2.3,1.74,7.14,7.14,0,0,1-3,.64,8,8,0,0,1-3.79-.88,6.36,6.36,0,0,1-2.64-2.6,8.46,8.46,0,0,1-1-4.17V158.1h3.68v10a5.18,5.18,0,0,0,1.21,3.69,4.26,4.26,0,0,0,3.28,1.29,4.35,4.35,0,0,0,3.31-1.29,5.18,5.18,0,0,0,1.22-3.69v-10Z"/><path class="cls-2" d="M343.69,158.57a6.41,6.41,0,0,1,3.21-.76v3.84H346a4.51,4.51,0,0,0-3.3,1.11c-.75.73-1.13,2-1.13,3.84V176h-3.71V158.1h3.71v2.6A5.91,5.91,0,0,1,343.69,158.57Z"/><path class="cls-1" d="M382.87,158.1,377.3,176h-3.9l-3.62-13.25L366.17,176h-3.91l-5.6-17.94h3.78l3.74,14.42L368,158.1h3.88l3.64,14.36,3.71-14.36Z"/><path class="cls-2" d="M388.83,175.18a8.37,8.37,0,0,1-3.23-3.26,9.83,9.83,0,0,1-1.17-4.87,9.57,9.57,0,0,1,1.21-4.85,8.33,8.33,0,0,1,3.28-3.25,10.09,10.09,0,0,1,9.32,0,8.33,8.33,0,0,1,3.28,3.25,9.57,9.57,0,0,1,1.21,4.85,9.36,9.36,0,0,1-1.24,4.85,8.5,8.5,0,0,1-3.37,3.28,9.7,9.7,0,0,1-4.7,1.15A9.17,9.17,0,0,1,388.83,175.18Zm7.27-2.75a5.18,5.18,0,0,0,2-2.06,6.58,6.58,0,0,0,.78-3.32,6.71,6.71,0,0,0-.75-3.3,5.12,5.12,0,0,0-2-2,5.52,5.52,0,0,0-2.67-.68,5.43,5.43,0,0,0-2.66.68,5,5,0,0,0-1.94,2,7.06,7.06,0,0,0-.71,3.3,6.27,6.27,0,0,0,1.48,4.48,4.91,4.91,0,0,0,3.73,1.58A5.56,5.56,0,0,0,396.1,172.43Z"/><path class="cls-2" d="M412.28,158.57a6.41,6.41,0,0,1,3.21-.76v3.84h-.94a4.52,4.52,0,0,0-3.31,1.11c-.75.73-1.12,2-1.12,3.84V176h-3.71V158.1h3.71v2.6A5.81,5.81,0,0,1,412.28,158.57Z"/><path class="cls-2" d="M422.62,152V176h-3.71V152Z"/><path class="cls-2" d="M427.39,162.2a8.16,8.16,0,0,1,7.37-4.39,8.39,8.39,0,0,1,3.47.76,7,7,0,0,1,2.72,2V152h3.74V176H441v-2.7a7.13,7.13,0,0,1-2.52,2.15,8.42,8.42,0,0,1-8-.35,8.4,8.4,0,0,1-3.06-3.32,10.18,10.18,0,0,1-1.12-4.83A9.94,9.94,0,0,1,427.39,162.2Zm12.79,1.63a5.28,5.28,0,0,0-2-2.08,5.19,5.19,0,0,0-2.67-.72,5.26,5.26,0,0,0-4.67,2.75,6.41,6.41,0,0,0-.76,3.21,6.64,6.64,0,0,0,.76,3.25,5.36,5.36,0,0,0,2,2.14,5.25,5.25,0,0,0,7.32-2.09,6.58,6.58,0,0,0,.77-3.24A6.5,6.5,0,0,0,440.18,163.83Z"/></svg>