<svg xmlns="http://www.w3.org/2000/svg" viewBox="0 0 385.4 175.88"><defs><style>.cls-1{fill:#42b76e;}.cls-2{fill:#727373;}.cls-3{fill:#7f7f7f;}</style></defs><title>Asset 1</title><g id="Layer_2" data-name="Layer 2"><g id="Layer_1-2" data-name="Layer 1"><path class="cls-1" d="M101,92.6v16.66a4.49,4.49,0,0,1-4.49,4.49H4.4a4.4,4.4,0,0,1-4.4-4.4V95.48a4.13,4.13,0,0,1,1-2.67l56.7-67h-52a4.2,4.2,0,0,1-4.2-4.2V5.11A4.61,4.61,0,0,1,6.09.5H94.83a4.32,4.32,0,0,1,4.32,4.31v14a4.13,4.13,0,0,1-1,2.67L41.47,88.49H96.93A4.11,4.11,0,0,1,101,92.6Z"/><path class="cls-2" d="M163.79,67.55q5.66,5.57,5.66,16.21v30h-6.87V84.43c0-5.28-1.32-9.32-4-12.09s-6.41-4.16-11.31-4.16q-8.22,0-13,4.89T129.5,86.56v27.18h-6.87V28.84h6.87V71.28a18.58,18.58,0,0,1,7.74-6.87A25.41,25.41,0,0,1,148.55,62Q158.14,62,163.79,67.55Z"/><path class="cls-2" d="M328.44,65.24a23.16,23.16,0,0,1,9.09,9.14,27.14,27.14,0,0,1,3.29,13.44,27.21,27.21,0,0,1-3.29,13.45,23.46,23.46,0,0,1-9.09,9.18,25.75,25.75,0,0,1-13,3.29A23.89,23.89,0,0,1,304,111a20.91,20.91,0,0,1-8.18-7.83v10.54h-6.57V28.84h6.86V72.06a21.15,21.15,0,0,1,8.18-7.5A24,24,0,0,1,315.48,62,26.13,26.13,0,0,1,328.44,65.24Zm-3.77,39.94a17.35,17.35,0,0,0,6.81-7,22.92,22.92,0,0,0,0-20.7,17.35,17.35,0,0,0-6.81-7,20.28,20.28,0,0,0-19.4,0,17.58,17.58,0,0,0-6.77,7,23,23,0,0,0,0,20.7,17.58,17.58,0,0,0,6.77,7,20.28,20.28,0,0,0,19.4,0Z"/><path class="cls-2" d="M267.67,99.83V62h-6.86v29.9h0v7.94h0c-.17,3.82-14.17,6.9-31.43,6.9s-31.26-3.08-31.44-6.9h0V91.89h0V62H191V99.83h0c0,7.69,17.16,13.92,38.32,13.92s38.31-6.23,38.31-13.92Z"/><path class="cls-3" d="M345.64,23.85c17.31,13.25,29,36.48,36.59,53.72A88.91,88.91,0,0,0,260.81,6.42C287.09,2.29,319.18,3.59,345.64,23.85Z"/><path class="cls-2" d="M5.62,152a8.58,8.58,0,0,1,3.32-3.46,9.48,9.48,0,0,1,4.86-1.22A9.54,9.54,0,0,1,19.64,149a8.14,8.14,0,0,1,3,4.77H19.23A5,5,0,0,0,17.32,151a6,6,0,0,0-3.52-1,5.64,5.64,0,0,0-4.42,1.87,7.65,7.65,0,0,0-1.69,5.32,7.76,7.76,0,0,0,1.69,5.36,5.63,5.63,0,0,0,4.42,1.9,5.91,5.91,0,0,0,3.5-1,4.94,4.94,0,0,0,1.93-2.8h3.44a8.45,8.45,0,0,1-3.09,4.71,9.18,9.18,0,0,1-5.78,1.78,9.49,9.49,0,0,1-4.86-1.23,8.61,8.61,0,0,1-3.32-3.47,11.12,11.12,0,0,1-1.19-5.26A10.92,10.92,0,0,1,5.62,152Z"/><path class="cls-2" d="M33.21,165.92a8.75,8.75,0,0,1-3.44-3.49,10.71,10.71,0,0,1-1.24-5.24A10.32,10.32,0,0,1,29.81,152a8.7,8.7,0,0,1,3.49-3.47,10.71,10.71,0,0,1,9.89,0A8.75,8.75,0,0,1,46.67,152a11.23,11.23,0,0,1,0,10.47,9.11,9.11,0,0,1-3.56,3.49,10.21,10.21,0,0,1-5,1.23A9.81,9.81,0,0,1,33.21,165.92Zm8.12-2.39a6.08,6.08,0,0,0,2.43-2.42,7.71,7.71,0,0,0,.93-3.92,7.82,7.82,0,0,0-.91-3.93,5.91,5.91,0,0,0-2.38-2.4,6.88,6.88,0,0,0-6.4,0,5.77,5.77,0,0,0-2.34,2.4,8.15,8.15,0,0,0-.87,3.93,8.28,8.28,0,0,0,.86,4,5.66,5.66,0,0,0,2.29,2.4,6.42,6.42,0,0,0,3.16.79A6.73,6.73,0,0,0,41.33,163.53Z"/><path class="cls-2" d="M70,149.38a8.18,8.18,0,0,1,2.18,6.12v11.33H69V156a6.15,6.15,0,0,0-1.44-4.4A5.1,5.1,0,0,0,63.67,150a5.26,5.26,0,0,0-4,1.58,6.45,6.45,0,0,0-1.49,4.59v10.63H55V147.61h3.19v2.74a6.28,6.28,0,0,1,2.58-2.28,8,8,0,0,1,3.59-.81A7.8,7.8,0,0,1,70,149.38Z"/><path class="cls-2" d="M95.26,149.38a8.18,8.18,0,0,1,2.18,6.12v11.33H94.28V156a6.2,6.2,0,0,0-1.43-4.4A5.14,5.14,0,0,0,88.92,150a5.26,5.26,0,0,0-4,1.58,6.45,6.45,0,0,0-1.49,4.59v10.63H80.22V147.61h3.19v2.74A6.28,6.28,0,0,1,86,148.07a8,8,0,0,1,3.59-.81A7.8,7.8,0,0,1,95.26,149.38Z"/><path class="cls-2" d="M122.9,158.41H107.54a6.05,6.05,0,0,0,6.24,6,6,6,0,0,0,3.46-1,5.07,5.07,0,0,0,1.94-2.58h3.44a8.22,8.22,0,0,1-3.09,4.51,9.29,9.29,0,0,1-5.75,1.74,9.71,9.71,0,0,1-4.89-1.23,8.61,8.61,0,0,1-3.38-3.49,10.82,10.82,0,0,1-1.23-5.24,11.06,11.06,0,0,1,1.19-5.23,8.32,8.32,0,0,1,3.35-3.45,9.93,9.93,0,0,1,5-1.21,9.57,9.57,0,0,1,4.84,1.19,8.27,8.27,0,0,1,3.25,3.28,9.66,9.66,0,0,1,1.14,4.71A18.74,18.74,0,0,1,122.9,158.41Zm-4-5.73a5.28,5.28,0,0,0-2.19-2,6.78,6.78,0,0,0-3.07-.68,5.9,5.9,0,0,0-4.12,1.54,6.33,6.33,0,0,0-2,4.28h12.14A5.87,5.87,0,0,0,118.9,152.68Z"/><path class="cls-2" d="M130,152a8.56,8.56,0,0,1,3.31-3.46A10.58,10.58,0,0,1,144,149a8.14,8.14,0,0,1,3,4.77h-3.43a5,5,0,0,0-1.91-2.77,6,6,0,0,0-3.53-1,5.66,5.66,0,0,0-4.42,1.87,7.7,7.7,0,0,0-1.68,5.32,7.81,7.81,0,0,0,1.68,5.36,5.65,5.65,0,0,0,4.42,1.9,6,6,0,0,0,3.51-1,5,5,0,0,0,1.93-2.8h3.43a8.43,8.43,0,0,1-3.08,4.71,9.19,9.19,0,0,1-5.79,1.78,9.54,9.54,0,0,1-4.86-1.23,8.58,8.58,0,0,1-3.31-3.47,11.12,11.12,0,0,1-1.19-5.26A10.92,10.92,0,0,1,130,152Z"/><path class="cls-2" d="M158,150.24v11.33a2.68,2.68,0,0,0,.59,2,2.93,2.93,0,0,0,2.07.58H163v2.7h-2.87a5.72,5.72,0,0,1-4-1.23,5.26,5.26,0,0,1-1.34-4V150.24h-2.48v-2.63h2.48v-4.84H158v4.84h5v2.63Z"/><path class="cls-2" d="M198.41,147.61l-11.58,28.27h-3.29l3.79-9.26-7.76-19h3.55l6,15.57,6-15.57Z"/><path class="cls-2" d="M207.89,165.92a8.73,8.73,0,0,1-3.43-3.49,10.71,10.71,0,0,1-1.25-5.24,10.42,10.42,0,0,1,1.28-5.21,8.82,8.82,0,0,1,3.49-3.47,10.71,10.71,0,0,1,9.89,0,8.77,8.77,0,0,1,3.49,3.45,11.23,11.23,0,0,1,0,10.47,9.18,9.18,0,0,1-3.56,3.49,10.21,10.21,0,0,1-5,1.23A9.88,9.88,0,0,1,207.89,165.92Zm8.12-2.39a6,6,0,0,0,2.44-2.42,7.71,7.71,0,0,0,.93-3.92,7.82,7.82,0,0,0-.91-3.93,5.88,5.88,0,0,0-2.39-2.4,6.88,6.88,0,0,0-6.4,0,5.69,5.69,0,0,0-2.33,2.4,8.15,8.15,0,0,0-.88,3.93,8.4,8.4,0,0,0,.86,4,5.74,5.74,0,0,0,2.3,2.4,6.42,6.42,0,0,0,3.16.79A6.69,6.69,0,0,0,216,163.53Z"/><path class="cls-2" d="M246.7,147.61v19.22h-3.19V164a6.29,6.29,0,0,1-2.54,2.3,7.87,7.87,0,0,1-3.6.82,8.58,8.58,0,0,1-4-.93,6.71,6.71,0,0,1-2.82-2.79,9.15,9.15,0,0,1-1-4.52V147.61h3.16v10.84a6.1,6.1,0,0,0,1.44,4.36,5.1,5.1,0,0,0,3.92,1.53,5.28,5.28,0,0,0,4-1.58,6.49,6.49,0,0,0,1.47-4.59V147.61Z"/><path class="cls-2" d="M260.5,148.17a7.51,7.51,0,0,1,3.81-.91v3.3h-.85q-5.35,0-5.36,5.82v10.45h-3.19V147.61h3.19v3.12A6.12,6.12,0,0,1,260.5,148.17Z"/><path class="cls-2" d="M308.56,147.61l-6,19.22h-3.3l-4.63-15.26L290,166.83h-3.29l-6-19.22h3.26l4.42,16.13,4.77-16.13h3.26l4.67,16.17,4.35-16.17Z"/><path class="cls-2" d="M318,165.92a8.69,8.69,0,0,1-3.44-3.49,10.71,10.71,0,0,1-1.25-5.24,10.42,10.42,0,0,1,1.28-5.21,8.82,8.82,0,0,1,3.49-3.47,10.71,10.71,0,0,1,9.89,0,8.71,8.71,0,0,1,3.49,3.45,11.23,11.23,0,0,1,0,10.47,9.18,9.18,0,0,1-3.56,3.49,10.21,10.21,0,0,1-5,1.23A9.81,9.81,0,0,1,318,165.92Zm8.11-2.39a6,6,0,0,0,2.44-2.42,7.71,7.71,0,0,0,.93-3.92,7.82,7.82,0,0,0-.91-3.93,5.88,5.88,0,0,0-2.39-2.4,6.88,6.88,0,0,0-6.4,0,5.75,5.75,0,0,0-2.33,2.4,8.15,8.15,0,0,0-.87,3.93,8.4,8.4,0,0,0,.85,4,5.74,5.74,0,0,0,2.3,2.4,6.42,6.42,0,0,0,3.16.79A6.69,6.69,0,0,0,326.13,163.53Z"/><path class="cls-2" d="M345.37,148.17a7.51,7.51,0,0,1,3.81-.91v3.3h-.85q-5.35,0-5.36,5.82v10.45h-3.19V147.61H343v3.12A6.12,6.12,0,0,1,345.37,148.17Z"/><path class="cls-2" d="M358.86,140.88v26h-3.2v-26Z"/><path class="cls-2" d="M367.1,152a8.55,8.55,0,0,1,3.28-3.46,9,9,0,0,1,4.68-1.22,8.7,8.7,0,0,1,4.17,1,7.49,7.49,0,0,1,2.95,2.72V140.88h3.22v26h-3.22v-3.61a7.52,7.52,0,0,1-2.81,2.82,8.33,8.33,0,0,1-4.35,1.11,8.81,8.81,0,0,1-4.64-1.27,8.7,8.7,0,0,1-3.28-3.54,11,11,0,0,1-1.2-5.19A10.73,10.73,0,0,1,367.1,152Zm14.2,1.42a6.07,6.07,0,0,0-2.37-2.47,6.35,6.35,0,0,0-3.28-.86,6.46,6.46,0,0,0-3.26.84,6.17,6.17,0,0,0-2.35,2.45,7.88,7.88,0,0,0-.87,3.79A8.06,8.06,0,0,0,370,161a6.22,6.22,0,0,0,2.35,2.49,6.38,6.38,0,0,0,3.26.86,6.45,6.45,0,0,0,3.28-.86A6.07,6.07,0,0,0,381.3,161a8,8,0,0,0,.88-3.8A7.86,7.86,0,0,0,381.3,153.4Z"/></g></g></svg>