<svg id="Layer_1" data-name="Layer 1" xmlns="http://www.w3.org/2000/svg" viewBox="0 0 239.14 112.53"><defs><style>.cls-1{fill:#43b86f;}.cls-2{fill:#05223e;}.cls-3{fill:none;stroke:#d2d2d2;stroke-miterlimit:10;stroke-width:1.38px;opacity:0.69;}.cls-4{fill:#fff;}</style></defs><title>Artboard 11</title><rect class="cls-1" x="91.14" y="32.26" width="5.76" height="2.21"/><path class="cls-1" d="M103.32,81.21,98.7,68.59H58.78l-6,10.8a1.23,1.23,0,0,0,1.08,1.82h49.42Z"/><path class="cls-1" d="M92.09,32.25H61.65a1.24,1.24,0,0,0-1.09.65l-5.05,9.47a1.22,1.22,0,0,0,1.08,1.8H72.44L54.33,77l11.11,4L85.53,44.17Z"/><path class="cls-2" d="M169.61,32.26H94.18A7.78,7.78,0,0,0,86.39,40V73.47a7.79,7.79,0,0,0,7.79,7.79h1.4v3.4l4.71,8.23,7-11.63h62.35a7.78,7.78,0,0,0,7.78-7.79V40A7.78,7.78,0,0,0,169.61,32.26Z"/><circle class="cls-2" cx="157.45" cy="59.46" r="8.93"/><line class="cls-3" x1="113.83" y1="34.66" x2="154.2" y2="62.37"/><line class="cls-3" x1="172.38" y1="15.67" x2="154.2" y2="62.37"/><line class="cls-3" x1="182.79" y1="62.34" x2="154.2" y2="62.37"/><line class="cls-3" x1="178.9" y1="97.91" x2="154.2" y2="62.37"/><line class="cls-3" x1="137.23" y1="94.87" x2="154.2" y2="62.37"/><line class="cls-3" x1="137.23" y1="94.87" x2="178.9" y2="97.91"/><line class="cls-3" x1="182.79" y1="62.34" x2="178.9" y2="97.91"/><line class="cls-3" x1="172.38" y1="15.67" x2="182.79" y2="62.34"/><line class="cls-3" x1="113.83" y1="34.66" x2="172.38" y2="15.67"/><line class="cls-3" x1="137.23" y1="94.87" x2="113.83" y2="34.66"/><circle class="cls-1" cx="172.38" cy="15.67" r="6.77"/><circle class="cls-1" cx="113.83" cy="34.66" r="4.56"/><circle class="cls-1" cx="182.79" cy="62.34" r="3.68"/><circle class="cls-1" cx="178.11" cy="97.93" r="5.7"/><circle class="cls-1" cx="137.23" cy="94.87" r="4.03"/><circle class="cls-2" cx="156.8" cy="61.03" r="8.88"/><path class="cls-4" d="M118,62.27V47.18h6.27V60.9a7,7,0,0,0,1,4.16,3.55,3.55,0,0,0,3,1.4,6.39,6.39,0,0,0,2.41-.48,6.86,6.86,0,0,0,2.2-1.44,8.14,8.14,0,0,0,1.71-2.41v-15h6.27V64.34a2.12,2.12,0,0,0,.35,1.38,1.69,1.69,0,0,0,1.14.5v5.07c-.62.09-1.14.16-1.56.2a9.8,9.8,0,0,1-1.15.07A4.56,4.56,0,0,1,137,70.8a3,3,0,0,1-1.24-2.09l-.14-1.93a10.67,10.67,0,0,1-4.21,3.71,12.67,12.67,0,0,1-5.66,1.26A7,7,0,0,1,120,69.33Q118,66.91,118,62.27Z"/><path class="cls-4" d="M158.11,71.75a9.85,9.85,0,0,1-5-1.25,9.16,9.16,0,0,1-3.45-3.43v4.22h-5.44v-39h6.23V51.55a9.77,9.77,0,0,1,3.42-3.43,9.62,9.62,0,0,1,5-1.25,9.45,9.45,0,0,1,4.33,1,10.15,10.15,0,0,1,3.37,2.72,12.67,12.67,0,0,1,2.19,4,14.83,14.83,0,0,1,.77,4.81,13.42,13.42,0,0,1-.86,4.81,12.61,12.61,0,0,1-2.4,4,10.59,10.59,0,0,1-3.61,2.66A10.78,10.78,0,0,1,158.11,71.75Zm-1.73-5.28a6.45,6.45,0,0,0,2.73-.57,7.12,7.12,0,0,0,2.14-1.52,6.65,6.65,0,0,0,1.39-2.25,7.56,7.56,0,0,0,.49-2.71,8.13,8.13,0,0,0-.81-3.61,7,7,0,0,0-2.24-2.66,5.64,5.64,0,0,0-3.32-1,5.74,5.74,0,0,0-2.59.62A7.27,7.27,0,0,0,152,54.42a8.21,8.21,0,0,0-1.52,2.37v5.68a4.57,4.57,0,0,0,.91,1.64,6.58,6.58,0,0,0,1.47,1.25,7.85,7.85,0,0,0,1.74.81A5.7,5.7,0,0,0,156.38,66.47Z"/><path class="cls-4" d="M116.12,71.72h-6v-13a6.37,6.37,0,0,0-1.06-4,3.49,3.49,0,0,0-2.89-1.32,5.07,5.07,0,0,0-2.29.61,7.55,7.55,0,0,0-2.17,1.68,10.47,10.47,0,0,0-1.41,3.26v34h-6V32.26h6V45.5c0,1.53-.06,3.08,0,4.61,0-.36.6-.73.85-.93a9.4,9.4,0,0,1,1.43-.92,10.18,10.18,0,0,1,10.09.73,7.37,7.37,0,0,1,3.14,4.88,17.54,17.54,0,0,1,.32,3.35Z"/></svg>